<svg width="133" height="128" viewBox="0 0 133 128" fill="none" xmlns="http://www.w3.org/2000/svg">
<path fill-rule="evenodd" clip-rule="evenodd" d="M111.096 12.4901C111.096 19.3882 105.504 24.9802 98.6063 24.9802C97.4134 24.9802 96.2595 24.813 95.1669 24.5007L83.4251 45.4408C87.7032 49.5534 90.371 55.3289 90.389 61.7276L108.452 63.4173C110.108 58.462 114.787 54.8906 120.3 54.8906C127.198 54.8906 132.79 60.4826 132.79 67.3807C132.79 74.2788 127.198 79.8709 120.3 79.8709C114.295 79.8709 109.279 75.6331 108.081 69.9851L89.4587 68.243C87.9616 73.2988 84.7495 77.618 80.4964 80.5265C86.4693 76.4418 90.389 69.575 90.389 61.7927C90.389 52.5919 84.9101 44.6708 77.037 41.1139L89.2891 20.8085C87.3158 18.5998 86.1162 15.685 86.1162 12.4901C86.1162 5.59202 91.7082 0 98.6063 0C105.504 0 111.096 5.59202 111.096 12.4901ZM53.1719 44.3848L42.1901 34.913C43.163 33.1353 43.7161 31.0951 43.7161 28.9257C43.7161 22.0276 38.1241 16.4355 31.226 16.4355C24.3279 16.4355 18.7358 22.0276 18.7358 28.9257C18.7358 35.8238 24.3279 41.4158 31.226 41.4158C33.5641 41.4158 35.7522 40.7733 37.6233 39.6553L48.7881 49.2849C50.0061 47.4461 51.4849 45.7951 53.1719 44.3848ZM45.4753 66.286L22.4893 74.686C20.211 71.6475 16.5801 69.6816 12.4901 69.6816C5.59202 69.6816 0 75.2737 0 82.1718C0 89.0699 5.59202 94.6619 12.4901 94.6619C19.3882 94.6619 24.9802 89.0699 24.9802 82.1718C24.9802 81.7088 24.9551 81.2517 24.906 80.8018L47.6973 72.4729C46.6733 70.5582 45.9161 68.4793 45.4753 66.286ZM66.0991 84.4158C66.6311 84.4532 67.1682 84.4721 67.7097 84.4721C68.3139 84.4721 68.9126 84.4485 69.5049 84.4021L72.892 103.265C68.4868 105.195 65.4092 109.593 65.4092 114.711C65.4092 121.609 71.0012 127.201 77.8993 127.201C84.7974 127.201 90.3894 121.609 90.3894 114.711C90.3894 108.32 85.5902 103.051 79.3994 102.31L75.9212 82.9399M86.1161 61.7927C86.1161 71.9583 77.8752 80.1992 67.7096 80.1992C57.544 80.1992 49.3031 71.9583 49.3031 61.7927C49.3031 51.6271 57.544 43.3862 67.7096 43.3862C77.8752 43.3862 86.1161 51.6271 86.1161 61.7927ZM98.003 3.48525C94.1979 5.0356 92.127 9.15046 91.2608 12.044C91.0867 12.6255 90.243 12.7213 90.0647 12.1411C89.4542 10.1548 89.6143 8.26126 91.1292 6.36783C93.664 3.19938 96.0817 2.33272 97.9981 2.30282C98.6685 2.29236 98.6238 3.23227 98.003 3.48525ZM24.2085 30.4502C25.0748 27.5567 27.1457 23.4419 30.9507 21.8915C31.5716 21.6385 31.6162 20.6986 30.9459 20.7091C29.0295 20.739 26.6117 21.6056 24.0769 24.7741C22.562 26.6675 22.402 28.561 23.0125 30.5474C23.1908 31.1276 24.0345 31.0317 24.2085 30.4502ZM56.0871 62.476C57.4702 57.856 60.7767 51.2858 66.8522 48.8104C67.8436 48.4065 67.9148 46.9057 66.8445 46.9224C63.7846 46.9702 59.9242 48.354 55.8769 53.413C53.4582 56.4362 53.2026 59.4596 54.1773 62.6311C54.462 63.5575 55.8091 63.4044 56.0871 62.476ZM4.81596 84.0264C5.68222 81.1329 7.75309 77.018 11.5581 75.4677C12.179 75.2147 12.2237 74.2748 11.5533 74.2852C9.63692 74.3151 7.21916 75.1818 4.68435 78.3503C3.16947 80.2437 3.00942 82.1372 3.61987 84.1235C3.79819 84.7038 4.64187 84.6079 4.81596 84.0264ZM76.6382 108.337C72.8332 109.887 70.7623 114.002 69.896 116.896C69.722 117.477 68.8783 117.573 68.7 116.993C68.0895 115.006 68.2495 113.113 69.7644 111.219C72.2992 108.051 74.717 107.184 76.6334 107.154C77.3037 107.144 77.2591 108.084 76.6382 108.337ZM113.611 67.5908C114.478 64.6973 116.549 60.5825 120.354 59.0321C120.974 58.7791 121.019 57.8392 120.349 57.8497C118.432 57.8796 116.015 58.7463 113.48 61.9147C111.965 63.8081 111.805 65.7017 112.415 67.688C112.594 68.2682 113.437 68.1723 113.611 67.5908Z" fill="url(#paint0_linear_995_1184)"/>
<defs>
<linearGradient id="paint0_linear_995_1184" x1="22.6794" y1="15.9412" x2="132.789" y2="115.534" gradientUnits="userSpaceOnUse">
<stop stop-color="#005AAF"/>
<stop offset="1" stop-color="#4AA7FF"/>
</linearGradient>
</defs>
</svg>
